<svg width="512" height="512" viewBox="0 0 512 512" fill="none" xmlns="http://www.w3.org/2000/svg">
<rect width="512" height="512" rx="42" fill="#E9480D"/>
<path d="M263.221 320.328C368.716 320.328 454.236 405.849 454.236 511.344C454.236 511.563 454.234 511.781 454.233 512H72.2071C72.2064 511.781 72.2051 511.563 72.2051 511.344C72.2051 405.849 157.726 320.328 263.221 320.328Z" fill="white"/>
<mask id="mask0_28_101" style="mask-type:alpha" maskUnits="userSpaceOnUse" x="0" y="0" width="512" height="512">
<rect width="512" height="512" rx="42" fill="#E9480D"/>
</mask>
<g mask="url(#mask0_28_101)">
<ellipse opacity="0.63" cx="95.1795" cy="225.805" rx="72.8615" ry="72.2051" fill="white"/>
<path opacity="0.63" d="M95.1793 346.661C188.348 346.661 263.877 422.19 263.877 515.359C263.877 515.552 263.873 515.746 263.873 515.939H-73.514C-73.5147 515.746 -73.5179 515.552 -73.5179 515.359C-73.5179 422.19 2.01052 346.662 95.1793 346.661Z" fill="white"/>
<ellipse opacity="0.63" cx="435.18" cy="225.805" rx="72.8615" ry="72.2051" fill="white"/>
<path opacity="0.63" d="M435.179 346.661C528.348 346.661 603.877 422.19 603.877 515.359C603.877 515.552 603.873 515.746 603.873 515.939H266.486C266.485 515.746 266.482 515.552 266.482 515.359C266.482 422.19 342.011 346.662 435.179 346.661Z" fill="white"/>
<path d="M331.483 137.599C340.192 150.628 345.272 166.29 345.272 183.139C345.272 228.454 308.536 265.19 263.22 265.19C217.905 265.189 181.169 228.454 181.169 183.139C181.169 166.81 185.939 151.594 194.161 138.811C195.581 141.807 198.159 144.206 201.44 145.361L256.302 164.687C259.036 165.649 262.018 165.659 264.757 164.708L324.167 144.124C327.458 142.984 330.049 140.592 331.483 137.599Z" fill="white"/>
<path d="M392.533 84.4786L262.02 126.926L133.908 85.261L262.856 43.3231L392.533 84.4786Z" fill="black"/>
<path d="M261.633 134.733L192.947 112.396V132.102C192.947 137.47 196.349 142.256 201.439 144.049L256.302 163.374C259.037 164.336 262.018 164.345 264.757 163.395L324.168 142.811C329.289 141.036 332.721 136.235 332.721 130.843V111.616L261.635 134.736L261.633 134.733Z" fill="black"/>
</g>
</svg>
